<?xml version="1.0" encoding="iso-8859-1"?>
<!DOCTYPE svg PUBLIC "-//W3C//DTD SVG 1.1//EN" "http://www.w3.org/Graphics/SVG/1.1/DTD/svg11.dtd">
<svg 
 version="1.1" xmlns="http://www.w3.org/2000/svg" xmlns:xlink="http://www.w3.org/1999/xlink" x="0px" y="0px" width="512px"
	 height="512px" viewBox="0 0 512 512" enable-background="new 0 0 512 512" xml:space="preserve"
><g id="b75708d097f2188dff6617b0f00eb9c4"><g></g><path display="inline" d="M181.578,72.226c-21.921,0-36.688,18.516-46.672,43.811l-70.228,73.135H32.589
		C14.857,189.171,0.5,219.096,0.5,256c0,36.903,14.357,66.828,32.089,66.828h32.089l70.228,73.136
		c9.983,25.295,24.751,43.811,46.672,43.811c65.5,0,67.387-164.966,67.387-183.774C248.965,237.189,247.078,72.226,181.578,72.226z
		 M181.578,404.625c-11.579-12.63-28.879-66.501-28.879-148.625s17.3-135.998,28.879-148.625
		c11.578,12.626,28.889,66.495,28.889,148.625C210.467,338.129,193.156,391.995,181.578,404.625z M511.5,229.747v52.507h-78.761
		v78.76h-52.507v-78.76h-78.761v-52.507h78.761v-78.761h52.507v78.761H511.5z"></path></g></svg>