<?xml version="1.0" encoding="iso-8859-1"?>
<!DOCTYPE svg PUBLIC "-//W3C//DTD SVG 1.1//EN" "http://www.w3.org/Graphics/SVG/1.1/DTD/svg11.dtd">
<svg 
 version="1.1" xmlns="http://www.w3.org/2000/svg" xmlns:xlink="http://www.w3.org/1999/xlink" x="0px" y="0px" width="512px"
	 height="512px" viewBox="0 0 512 512" enable-background="new 0 0 512 512" xml:space="preserve"
><g id="2020da7681f0d538108a21c6020158f9"><g></g><path display="inline" d="M337.619,288.823c-2.523,0-5.019,0.133-7.485,0.341c-18.181-51.856-67.525-89.055-125.587-89.055
		c-70.516,0-128.187,54.859-132.749,124.22c-0.112,0-0.216-0.017-0.324-0.017c-39.198,0-70.974,31.775-70.974,70.969
		c0,39.198,31.775,70.974,70.974,70.974h266.146c48.996,0,88.714-39.718,88.714-88.714
		C426.333,328.541,386.615,288.823,337.619,288.823z M266.646,372.572c-19.282,0-40.454,21.171-40.454,40.454
		c0,7.057-5.718,12.774-12.775,12.774c-7.057,0-12.775-5.718-12.775-12.774c0-33.311,32.694-66.005,66.004-66.005
		c7.058,0,12.775,5.719,12.775,12.775S273.703,372.572,266.646,372.572z M441.815,237.37c0,26.635-8.566,51.258-23.063,71.318
		c-18.709-20.447-45.003-33.846-74.396-35.63c-24.406-52.11-76.275-86.647-134.313-88.718
		c19.732-40.779,61.496-68.911,109.831-68.911C387.214,115.43,441.815,170.031,441.815,237.37z M303.549,80.585V63.161
		c0-9.581,7.585-17.416,16.867-17.416c9.281,0,16.875,7.835,16.875,17.416v17.424c0,9.581-7.594,17.416-16.875,17.416
		C311.134,98.001,303.549,90.166,303.549,80.585z M511.5,237.906c0,9.282-7.843,16.88-17.424,16.88h-17.421
		c-9.581,0-17.411-7.598-17.411-16.88c0-9.281,7.83-16.862,17.411-16.862h17.421C503.657,221.044,511.5,228.625,511.5,237.906z
		 M184.76,125.734c-6.774-6.774-6.953-17.682-0.395-24.253c6.575-6.562,17.482-6.383,24.252,0.379l12.33,12.33
		c6.774,6.774,6.941,17.682,0.383,24.252c-6.558,6.563-17.479,6.384-24.253-0.378L184.76,125.734z M454.99,126.508l-12.318,12.317
		c-6.773,6.774-17.694,6.953-24.252,0.383c-6.559-6.563-6.392-17.479,0.383-24.253l12.313-12.317
		c6.774-6.774,17.695-6.94,24.253-0.383C461.938,108.817,461.764,119.733,454.99,126.508z"></path></g></svg>